<?xml version="1.0" encoding="utf-8"?>
<!-- Generator: Adobe Illustrator 18.1.1, SVG Export Plug-In . SVG Version: 6.00 Build 0)  -->
<svg version="1.1" id="Layer_1" xmlns="http://www.w3.org/2000/svg" xmlns:xlink="http://www.w3.org/1999/xlink" x="0px" y="0px"
	 viewBox="0 0 128 128" enable-background="new 0 0 128 128" xml:space="preserve">
<g>
	<g>
		<path fill="#303C42" d="M104.9,117.9H33.6c-17.6,0-32.1-14.2-32.2-31.6c0-0.3,0-0.6,0-0.9c0.3-16.7,14.3-30.2,31.1-30.2
			c2.9,0,5.8,0.4,8.7,1.2l61.4,17.6c1.7,0.5,3.3,0.8,4.7,0.9c11,1.1,19.6,10.6,19.4,21.7C126.5,108.4,116.7,117.9,104.9,117.9z
			 M32.5,59.2C17.8,59.2,5.6,71,5.3,85.5c0,0.3,0,0.5,0,0.8c0.1,15.2,12.8,27.6,28.2,27.6h71.3c9.7,0,17.7-7.7,17.8-17.3
			c0.1-9-6.8-16.8-15.8-17.7c-1.7-0.2-3.5-0.5-5.5-1.1L40,60.3C37.6,59.6,35,59.2,32.5,59.2z"/>
	</g>
	<g>
		<path fill="#303C42" d="M40.7,127.5H27.1c-1.1,0-2-0.9-2-2v-9.6c0-1.1,0.9-2,2-2h13.5c1.1,0,2,0.9,2,2v9.6
			C42.7,126.6,41.8,127.5,40.7,127.5z M29.1,123.5h9.5v-5.6h-9.5V123.5z"/>
	</g>
	<g>
		<path fill="#303C42" d="M100.9,127.5H87.3c-1.1,0-2-0.9-2-2v-9.6c0-1.1,0.9-2,2-2h13.5c1.1,0,2,0.9,2,2v9.6
			C102.9,126.6,102,127.5,100.9,127.5z M89.3,123.5h9.5v-5.6h-9.5V123.5z"/>
	</g>
	<g>
		<path fill="#303C42" d="M47,30.6H19.2c-2.7,0-4.9-2.2-4.9-4.8v-10c0-2.7,2.2-4.8,4.9-4.8c0.3,0,0.6,0,0.9,0.1L48.2,16
			c3.6,0.6,6.1,3.7,6.1,7.2C54.4,27.3,51,30.6,47,30.6z M19.2,15c-0.5,0-0.9,0.4-0.9,0.8v10c0,0.5,0.4,0.8,0.9,0.8H47
			c1.9,0,3.4-1.5,3.4-3.4c0-1.6-1.2-3-2.8-3.3L19.4,15C19.3,15,19.2,15,19.2,15z"/>
	</g>
	<g>
		<path fill="#303C42" d="M38.5,59.8c-0.1,0-0.2,0-0.3,0c-3.6-0.6-7.3-0.7-11-0.5c-0.6,0-1.1-0.2-1.5-0.5s-0.6-0.9-0.6-1.5V28.6
			c0-1.1,0.9-2,2-2h11.4c1.1,0,2,0.9,2,2v29.2c0,0.6-0.3,1.1-0.7,1.5C39.4,59.7,39,59.8,38.5,59.8z M30.2,55.2
			c2.1,0,4.2,0.1,6.3,0.4v-25h-7.4v24.6C29.5,55.2,29.8,55.2,30.2,55.2z"/>
	</g>
	<g>
		<path fill="#303C42" d="M116.1,82.2c-0.1,0-0.1,0-0.2,0c-1.1-0.1-1.9-1.1-1.8-2.2c0-0.4,4.7-45-9.4-63.4c-0.7-0.9-0.5-2.1,0.4-2.8
			c0.9-0.7,2.1-0.5,2.8,0.4c15,19.7,10.4,64.4,10.2,66.3C117.9,81.5,117.1,82.2,116.1,82.2z"/>
	</g>
	<g>
		<path fill="#303C42" d="M91.8,30.3c-0.5,0-1-0.2-1.4-0.6c-0.8-0.8-0.8-2,0-2.8l25.8-25.8c0.8-0.8,2-0.8,2.8,0c0.8,0.8,0.8,2,0,2.8
			L93.2,29.7C92.8,30.1,92.3,30.3,91.8,30.3z"/>
	</g>
	<g>
		<path fill="#303C42" d="M43.5,104.5h-9.9c-0.6,0-1-0.4-1-1V83.9c0-0.6,0.4-1,1-1s1,0.4,1,1v18.6h8.9c0.6,0,1,0.4,1,1
			S44,104.5,43.5,104.5z"/>
	</g>
</g>
</svg>
