<?xml version="1.0" encoding="utf-8"?>
<!-- Generator: Adobe Illustrator 18.1.1, SVG Export Plug-In . SVG Version: 6.00 Build 0)  -->
<svg version="1.1" id="Layer_1" xmlns="http://www.w3.org/2000/svg" xmlns:xlink="http://www.w3.org/1999/xlink" x="0px" y="0px"
	 viewBox="0 0 128 128" enable-background="new 0 0 128 128" xml:space="preserve">
<g>
	<g>
		<path fill="#303C42" d="M117.3,127.5H10.7c-5.6,0-10.2-4.6-10.2-10.2V10.7c0-5.6,4.6-10.2,10.2-10.2h106.6
			c5.6,0,10.2,4.6,10.2,10.2v106.6C127.5,122.9,122.9,127.5,117.3,127.5z M10.7,4.5c-3.4,0-6.2,2.8-6.2,6.2v106.6
			c0,3.4,2.8,6.2,6.2,6.2h106.6c3.4,0,6.2-2.8,6.2-6.2V10.7c0-3.4-2.8-6.2-6.2-6.2H10.7z"/>
	</g>
	<g>
		<path fill="#303C42" d="M64,126.5c-0.6,0-1-0.4-1-1V39.3c0-0.6,0.4-1,1-1s1,0.4,1,1v86.2C65,126.1,64.6,126.5,64,126.5z"/>
	</g>
	<g>
		<path fill="#303C42" d="M90.8,40.3H37.2c-0.6,0-1-0.4-1-1c0-15.3,12.5-27.8,27.8-27.8s27.8,12.5,27.8,27.8
			C91.8,39.8,91.3,40.3,90.8,40.3z M38.2,38.3h51.5C89.2,24.5,77.9,13.5,64,13.5S38.8,24.5,38.2,38.3z"/>
	</g>
	<g>
		<path fill="#303C42" d="M73.4,40.3H54.6c-0.6,0-1-0.4-1-1c0-5.7,4.7-10.4,10.4-10.4c5.7,0,10.4,4.7,10.4,10.4
			C74.4,39.8,74,40.3,73.4,40.3z M55.6,38.3h16.7c-0.5-4.2-4.1-7.4-8.4-7.4S56.1,34.1,55.6,38.3z"/>
	</g>
	<g>
		<path fill="#303C42" d="M70.2,32.4c-0.2,0-0.4-0.1-0.6-0.2c-0.4-0.3-0.5-1-0.2-1.4l6.1-7.8c0.3-0.4,1-0.5,1.4-0.2
			c0.4,0.3,0.5,1,0.2,1.4L71,32C70.8,32.2,70.5,32.4,70.2,32.4z"/>
	</g>
</g>
</svg>
