<?xml version="1.0" encoding="utf-8"?>
<!-- Generator: Adobe Illustrator 18.1.1, SVG Export Plug-In . SVG Version: 6.00 Build 0)  -->
<svg version="1.1" id="Layer_1" xmlns="http://www.w3.org/2000/svg" xmlns:xlink="http://www.w3.org/1999/xlink" x="0px" y="0px"
	 viewBox="0 0 128 128" enable-background="new 0 0 128 128" xml:space="preserve">
<g>
	<g>
		<path fill="#303C42" d="M109.4,127.5H18.6c-1.1,0-2-0.9-2-2V16.6c0-1.1,0.9-2,2-2h22.5c0.6,0,1.3,0.3,1.6,0.8
			c0.4,0.5,0.5,1.2,0.3,1.8l-1.5,4.3h44.8l-1.5-4.3c-0.2-0.6-0.1-1.3,0.3-1.8c0.4-0.5,1-0.8,1.6-0.8h22.5c1.1,0,2,0.9,2,2v108.9
			C111.4,126.6,110.5,127.5,109.4,127.5z M20.6,123.5h86.7V18.6H89.6l1.5,4.3c0.2,0.6,0.1,1.3-0.3,1.8c-0.4,0.5-1,0.8-1.6,0.8H38.8
			c-0.6,0-1.3-0.3-1.6-0.8c-0.4-0.5-0.5-1.2-0.3-1.8l1.5-4.3H20.6V123.5z"/>
	</g>
	<g>
		<path fill="#303C42" d="M99.3,119.2H28.7c-0.6,0-1-0.4-1-1V23.8c0-0.6,0.4-1,1-1h70.6c0.6,0,1,0.4,1,1v94.4
			C100.3,118.8,99.8,119.2,99.3,119.2z M29.7,117.2h68.6V24.8H29.7V117.2z"/>
	</g>
	<g>
		<path fill="#303C42" d="M53.2,55.7H38c-0.6,0-1-0.4-1-1V39.6c0-0.6,0.4-1,1-1h15.1c0.6,0,1,0.4,1,1v15.1
			C54.2,55.3,53.7,55.7,53.2,55.7z M39,53.7h13.1V40.6H39V53.7z"/>
	</g>
	<g>
		<path fill="#303C42" d="M53.2,81H38c-0.6,0-1-0.4-1-1V64.9c0-0.6,0.4-1,1-1h15.1c0.6,0,1,0.4,1,1V80C54.2,80.6,53.7,81,53.2,81z
			 M39,79h13.1V65.9H39V79z"/>
	</g>
	<g>
		<path fill="#303C42" d="M53.2,106.3H38c-0.6,0-1-0.4-1-1V90.2c0-0.6,0.4-1,1-1h15.1c0.6,0,1,0.4,1,1v15.1
			C54.2,105.9,53.7,106.3,53.2,106.3z M39,104.3h13.1V91.2H39V104.3z"/>
	</g>
	<g>
		<path fill="#303C42" d="M90,48.2H62.4c-0.6,0-1-0.4-1-1s0.4-1,1-1H90c0.6,0,1,0.4,1,1S90.5,48.2,90,48.2z"/>
	</g>
	<g>
		<path fill="#303C42" d="M90,73.5H62.4c-0.6,0-1-0.4-1-1s0.4-1,1-1H90c0.6,0,1,0.4,1,1S90.5,73.5,90,73.5z"/>
	</g>
	<g>
		<path fill="#303C42" d="M90,98.7H62.4c-0.6,0-1-0.4-1-1s0.4-1,1-1H90c0.6,0,1,0.4,1,1S90.5,98.7,90,98.7z"/>
	</g>
	<g>
		<path fill="#303C42" d="M89.2,25.5H38.8c-0.6,0-1.3-0.3-1.6-0.8c-0.4-0.5-0.5-1.2-0.3-1.8l4.8-14c0.3-0.8,1-1.4,1.9-1.4h11.6
			c0.9-4,4.5-7.1,8.8-7.1s7.9,3,8.8,7.1h11.6c0.9,0,1.6,0.5,1.9,1.4l4.8,14c0.2,0.6,0.1,1.3-0.3,1.8C90.4,25.2,89.8,25.5,89.2,25.5z
			 M41.6,21.5h44.8l-3.4-10h-12c-1.1,0-2-0.9-2-2c0-2.8-2.3-5.1-5.1-5.1s-5.1,2.3-5.1,5.1c0,1.1-0.9,2-2,2H45L41.6,21.5z"/>
	</g>
</g>
</svg>
