<?xml version="1.0" encoding="utf-8"?>
<!-- Generator: Adobe Illustrator 18.1.1, SVG Export Plug-In . SVG Version: 6.00 Build 0)  -->
<svg version="1.1" id="Layer_1" xmlns="http://www.w3.org/2000/svg" xmlns:xlink="http://www.w3.org/1999/xlink" x="0px" y="0px"
	 viewBox="0 0 128 128" enable-background="new 0 0 128 128" xml:space="preserve">
<g>
	<g>
		<path fill="#303C42" d="M125.5,92.6H72.7c-0.9,0-1.6-0.5-1.9-1.4c-3.2-9.6-8.7-19.5-13.2-24.1c-3.8-3.8-9.2-5.8-15.2-5.5
			c-0.5,0-1.1-0.2-1.5-0.6s-0.6-0.9-0.6-1.4V56c0,0,0,0,0-0.1c0,0,0,0,0-0.1V2.6c0-1.1,0.9-2,2-2h83.2c1.1,0,2,0.9,2,2v87.9
			C127.5,91.7,126.6,92.6,125.5,92.6z M74.1,88.6h49.4V4.6H44.3V55c0.1,0.2,0.2,0.4,0.2,0.7c0,0.4,0,0.8-0.2,1.1v0.8
			c6.3,0.2,12,2.6,16.1,6.7C65.2,69.1,70.6,78.7,74.1,88.6z"/>
	</g>
	<g>
		<path fill="#303C42" d="M58.5,127.4C58.5,127.4,58.5,127.4,58.5,127.4c-15.9,0-36.5-10.4-43.6-17.5c-5.1-5.1-7.4-12.3-6.5-20.3
			c0-0.3,0.2-0.7,0.4-1c2.5-3.5,4.1-7.2,4.5-10.5c0.1-0.7,0.5-1.3,1.1-1.6c0.6-0.3,1.3-0.3,1.9,0c0.2,0.1,0.5,0.2,0.8,0.3
			c0.5,0.1,1,0.3,1.6,0.6c0.8,0.4,1.2,1.3,1,2.1c-0.3,1.8,0.4,2.9,1.8,4.7c0.1,0.1,0.1,0.1,0.2,0.2C22.1,80.6,22,77,21,74
			c-0.2-0.6-0.1-1.2,0.2-1.7c0.3-0.5,0.8-0.8,1.4-0.9c4.9-0.7,10.1-1.9,15.2-3.6c-1.8-1.1-4.4-1.6-7.3-2.1c-0.7-0.1-1.3-0.6-1.6-1.3
			c-0.2-0.7-0.1-1.5,0.4-2c0.8-0.9,1.7-1.7,2.7-2.6c0.2-0.1,0.4-0.3,0.6-0.3c3.5-1.3,7.1-1.9,10.6-1.9c6.7,0,12.7,2.4,17.1,6.7
			c10.2,10.2,25.5,45.2,12.6,58.1C69.7,125.7,64.8,127.4,58.5,127.4z M12.3,90.5c-0.6,6.5,1.3,12.4,5.4,16.5
			c6.5,6.5,26.1,16.3,40.8,16.3c0,0,0,0,0,0c5.2,0,9.1-1.3,11.6-3.8C81,108.7,66.5,76,57.6,67.1c-3.6-3.6-8.6-5.5-14.2-5.5
			c-2.5,0-5,0.4-7.6,1.1c2.9,0.8,5.8,2.2,7.4,5c0.3,0.5,0.4,1.1,0.1,1.7c-0.2,0.6-0.6,1-1.2,1.2c-5.7,2-11.3,3.5-16.7,4.5
			c1,4.7,0.5,10.2-1.4,15.8c-0.3,0.9-1.2,1.4-2.1,1.3c-0.9-0.1-1.7-0.8-1.8-1.8c-0.2-1.4-1-2.4-1.9-3.7c-0.7-1-1.6-2.1-2.1-3.4
			C15.2,85.7,13.9,88.2,12.3,90.5z"/>
	</g>
	<g>
		<path fill="#303C42" d="M115.7,68.6h-55c-0.3,0-0.6-0.1-0.8-0.4c-0.6-0.7-1.1-1.3-1.6-1.8c-1.8-1.8-4-3.3-6.5-4.3
			c-0.4-0.2-0.6-0.5-0.6-0.9V13.4c0-0.6,0.4-1,1-1h63.5c0.6,0,1,0.4,1,1v54.2C116.7,68.1,116.2,68.6,115.7,68.6z M61.1,66.6h53.5
			V14.4H53.1v46.2c2.5,1.1,4.7,2.6,6.6,4.5C60.1,65.5,60.6,66,61.1,66.6z"/>
	</g>
	<g>
		<path fill="#303C42" d="M36.8,87.3c-0.3,0-0.5-0.1-0.7-0.3l-4-4c-0.4-0.4-0.4-1,0-1.4c0.4-0.4,1-0.4,1.4,0l4,4
			c0.4,0.4,0.4,1,0,1.4C37.4,87.2,37.1,87.3,36.8,87.3z"/>
	</g>
	<g>
		<path fill="#303C42" d="M45.8,96.2c-0.3,0-0.5-0.1-0.7-0.3l-4-4c-0.4-0.4-0.4-1,0-1.4c0.4-0.4,1-0.4,1.4,0l4,4
			c0.4,0.4,0.4,1,0,1.4C46.3,96.1,46.1,96.2,45.8,96.2z"/>
	</g>
	<g>
		<path fill="#303C42" d="M54.7,105.2c-0.3,0-0.5-0.1-0.7-0.3l-4-4c-0.4-0.4-0.4-1,0-1.4c0.4-0.4,1-0.4,1.4,0l4,4
			c0.4,0.4,0.4,1,0,1.4C55.3,105.1,55,105.2,54.7,105.2z"/>
	</g>
	<g>
		<path fill="#303C42" d="M63.7,114.1c-0.3,0-0.5-0.1-0.7-0.3l-4-4c-0.4-0.4-0.4-1,0-1.4c0.4-0.4,1-0.4,1.4,0l4,4
			c0.4,0.4,0.4,1,0,1.4C64.2,114,64,114.1,63.7,114.1z"/>
	</g>
	<g>
		<path fill="#303C42" d="M49.1,75.8c-0.3,0-0.7-0.2-0.9-0.5l-2.8-5c-0.3-0.5-0.1-1.1,0.4-1.4c0.5-0.3,1.1-0.1,1.4,0.4l2.8,5
			c0.3,0.5,0.1,1.1-0.4,1.4C49.5,75.8,49.3,75.8,49.1,75.8z"/>
	</g>
	<g>
		<path fill="#303C42" d="M55.3,86.9c-0.3,0-0.7-0.2-0.9-0.5l-2.8-5c-0.3-0.5-0.1-1.1,0.4-1.4c0.5-0.3,1.1-0.1,1.4,0.4l2.8,5
			c0.3,0.5,0.1,1.1-0.4,1.4C55.7,86.8,55.5,86.9,55.3,86.9z"/>
	</g>
	<g>
		<path fill="#303C42" d="M61.6,97.9c-0.3,0-0.7-0.2-0.9-0.5l-2.8-5c-0.3-0.5-0.1-1.1,0.4-1.4c0.5-0.3,1.1-0.1,1.4,0.4l2.8,5
			c0.3,0.5,0.1,1.1-0.4,1.4C61.9,97.9,61.7,97.9,61.6,97.9z"/>
	</g>
	<g>
		<path fill="#303C42" d="M67.8,108.9c-0.3,0-0.7-0.2-0.9-0.5l-2.8-5c-0.3-0.5-0.1-1.1,0.4-1.4c0.5-0.3,1.1-0.1,1.4,0.4l2.8,5
			c0.3,0.5,0.1,1.1-0.4,1.4C68.1,108.9,67.9,108.9,67.8,108.9z"/>
	</g>
	<g>
		<path fill="#303C42" d="M25.2,99.7c-0.2,0-0.3,0-0.5-0.1l-5-2.8c-0.5-0.3-0.7-0.9-0.4-1.4c0.3-0.5,0.9-0.7,1.4-0.4l5,2.8
			c0.5,0.3,0.7,0.9,0.4,1.4C25.9,99.5,25.6,99.7,25.2,99.7z"/>
	</g>
	<g>
		<path fill="#303C42" d="M36.3,105.9c-0.2,0-0.3,0-0.5-0.1l-5-2.8c-0.5-0.3-0.7-0.9-0.4-1.4c0.3-0.5,0.9-0.7,1.4-0.4l5,2.8
			c0.5,0.3,0.7,0.9,0.4,1.4C37,105.8,36.6,105.9,36.3,105.9z"/>
	</g>
	<g>
		<path fill="#303C42" d="M47.3,112.1c-0.2,0-0.3,0-0.5-0.1l-5-2.8c-0.5-0.3-0.7-0.9-0.4-1.4c0.3-0.5,0.9-0.7,1.4-0.4l5,2.8
			c0.5,0.3,0.7,0.9,0.4,1.4C48,112,47.7,112.1,47.3,112.1z"/>
	</g>
	<g>
		<path fill="#303C42" d="M58.3,118.4c-0.2,0-0.3,0-0.5-0.1l-5-2.8c-0.5-0.3-0.7-0.9-0.4-1.4c0.3-0.5,0.9-0.7,1.4-0.4l5,2.8
			c0.5,0.3,0.7,0.9,0.4,1.4C59,118.2,58.7,118.4,58.3,118.4z"/>
	</g>
	<g>
		<path fill="#303C42" d="M104.5,26.6H63.3c-0.6,0-1-0.4-1-1c0-0.6,0.4-1,1-1h41.3c0.6,0,1,0.4,1,1
			C105.5,26.1,105.1,26.6,104.5,26.6z"/>
	</g>
	<g>
		<path fill="#303C42" d="M104.5,41.5H63.3c-0.6,0-1-0.4-1-1s0.4-1,1-1h41.3c0.6,0,1,0.4,1,1S105.1,41.5,104.5,41.5z"/>
	</g>
	<g>
		<path fill="#303C42" d="M104.5,56.4H63.3c-0.6,0-1-0.4-1-1c0-0.6,0.4-1,1-1h41.3c0.6,0,1,0.4,1,1C105.5,56,105.1,56.4,104.5,56.4z
			"/>
	</g>
	<g>
		<path fill="#303C42" d="M6.4,96.3c-0.1,0-0.3,0-0.4,0c-0.6-0.1-1.2-0.6-1.4-1.2C3.7,93.2,3,91.2,3,88.7c0-2.8,1-5.6,2.7-8
			c1.1-1.5,2.4-2.7,3.7-3.8c-0.3,0-0.7,0-1,0c-3.2,0-5.6-0.9-7.1-2.6c-1-1.1-0.7-2.3-0.6-2.7c0.2-0.6,0.6-1,1-1.4
			c2.8-2.7,6.3-4.7,9.5-5.4c0.7-0.2,1.4-0.2,2.3-0.2c0.5,0,1.1,0,1.6,0.1c0.5,0,0.9,0.1,1.4,0.1c1.1,0,1.9-0.2,2.6-0.6
			c0.4-0.2,0.8-0.7,1.3-1.2c0.2-0.2,0.3-0.4,0.5-0.5c3-3.3,6.7-4.9,10.7-6.3c3.4-1.3,6.5-2.3,9.3-2.3c0.8,0,1.6,0.1,2.2,0.3
			c0.8,0.2,1.4,0.9,1.5,1.7c0.1,0.8-0.3,1.6-1.1,2c-2.6,1.3-5.6,2.8-8.3,4.8c3.1,0.8,6.3,2.1,8,5.1c0.3,0.5,0.4,1.1,0.1,1.7
			c-0.2,0.6-0.6,1-1.2,1.2c-5.7,2-11.3,3.5-16.7,4.5c1,4.7,0.5,10.2-1.4,15.8c-0.3,0.9-1.2,1.4-2.1,1.3c-0.9-0.1-1.7-0.8-1.8-1.8
			c-0.2-1.4-1-2.4-1.9-3.7c-0.7-1-1.6-2.1-2.1-3.4c-1.5,4.4-4.5,8.9-8.3,12.4C7.4,96.1,6.9,96.3,6.4,96.3z M13,79.1
			c-0.1,0.1-0.3,0.3-0.4,0.4c-1.4,1.2-2.7,2.3-3.6,3.7C7.7,84.8,7,86.9,7,88.7c0,0.6,0.1,1.2,0.2,1.8C10.2,87,12.4,82.8,13,79.1z
			 M15.8,76.4c0.1,0,0.2,0.1,0.3,0.1c0.2,0.1,0.5,0.2,0.8,0.3c0.5,0.1,1,0.3,1.6,0.6c0.8,0.4,1.2,1.3,1,2.1
			c-0.3,1.8,0.4,2.9,1.8,4.7c0.1,0.1,0.1,0.1,0.2,0.2C22.1,80.6,22,77,21,74c-0.2-0.6-0.1-1.2,0.2-1.7c0.3-0.5,0.8-0.8,1.4-0.9
			c4.9-0.7,10-1.9,15.2-3.6c-1.8-1.1-4.4-1.6-7.3-2.1c-0.7-0.1-1.3-0.6-1.6-1.3c-0.2-0.7-0.1-1.5,0.4-2c0.7-0.8,1.4-1.5,2.2-2.1
			c-3,1.2-5.8,2.5-7.9,4.8c-0.1,0.2-0.3,0.3-0.4,0.5C22.7,66.2,22,67,21,67.6c-1.7,1-3.4,1.1-4.6,1.1c-0.5,0-1.1,0-1.6-0.1
			c-1-0.1-2-0.1-2.8,0.1c-2.2,0.5-4.7,1.9-6.9,3.7C5.9,72.8,7,73,8.3,73c2,0,4.3-0.4,6.3-0.8c0.8-0.2,1.6,0.2,2.1,0.9
			c0.4,0.7,0.4,1.6-0.1,2.3C16.3,75.7,16.1,76.1,15.8,76.4z"/>
	</g>
	<g>
		<path fill="#303C42" d="M85,80h-4.9c-0.6,0-1-0.4-1-1c0-0.6,0.4-1,1-1H85c0.6,0,1,0.4,1,1C86,79.6,85.5,80,85,80z"/>
	</g>
	<g>
		<path fill="#303C42" d="M109.4,80h-4.9c-0.6,0-1-0.4-1-1c0-0.6,0.4-1,1-1h4.9c0.6,0,1,0.4,1,1C110.4,79.6,109.9,80,109.4,80z"/>
	</g>
</g>
</svg>
