<?xml version="1.0" encoding="utf-8"?>
<!-- Generator: Adobe Illustrator 18.1.1, SVG Export Plug-In . SVG Version: 6.00 Build 0)  -->
<svg version="1.1" id="Layer_1" xmlns="http://www.w3.org/2000/svg" xmlns:xlink="http://www.w3.org/1999/xlink" x="0px" y="0px"
	 viewBox="0 0 128 128" enable-background="new 0 0 128 128" xml:space="preserve">
<g>
	<g>
		<path fill="#303C42" d="M46.1,22.5c-10.4,0-18.8-9-18.8-20c0-0.6,0.4-1,1-1H64c0.6,0,1,0.4,1,1C65,13.5,56.5,22.5,46.1,22.5z
			 M29.3,3.5c0.5,9.5,7.8,17,16.8,17S62.5,13,63,3.5H29.3z"/>
	</g>
	<g>
		<path fill="#303C42" d="M81.8,22.5c-10.4,0-18.8-9-18.8-20c0-0.6,0.4-1,1-1h35.7c0.6,0,1,0.4,1,1C100.7,13.5,92.2,22.5,81.8,22.5z
			 M65,3.5c0.5,9.5,7.8,17,16.8,17s16.3-7.5,16.8-17H65z"/>
	</g>
	<g>
		<path fill="#303C42" d="M102.2,27.2c-0.4,0-0.7-0.1-1.1-0.3l-3.7-2.4c-0.9-0.6-1.2-1.8-0.6-2.8c0.6-0.9,1.8-1.2,2.8-0.6l3.7,2.4
			c0.9,0.6,1.2,1.8,0.6,2.8C103.5,26.8,102.9,27.2,102.2,27.2z"/>
	</g>
	<g>
		<path fill="#303C42" d="M69.1,108.2H58.9c-0.4,0-0.8-0.2-0.9-0.6c-6.2-15.4-30.3-22.1-40.4-24.3c-0.5-0.1-0.9-0.6-0.8-1.2
			c0.8-4.6,1.9-9.3,3.2-14.1c0.1-0.5,0.6-0.8,1.1-0.7c14,2.2,27.9,3.5,41.1,4.1c1.2,0.1,2.4,0.1,3.6,0c13.2-0.6,27.1-1.9,41.1-4.1
			c0.5-0.1,1,0.2,1.1,0.7c1.3,4.7,2.4,9.5,3.2,14.1c0.1,0.5-0.2,1-0.8,1.2c-10.1,2.2-34.2,8.9-40.4,24.3
			C69.9,108,69.5,108.2,69.1,108.2z M59.5,106.2h8.9c6.5-14.9,27.7-21.8,40.6-24.7c-0.7-4-1.6-8-2.7-12.1c-13.8,2.1-27.4,3.4-40.4,4
			c-1.3,0.1-2.5,0.1-3.8,0c-13-0.5-26.6-1.9-40.4-4c-1.1,4.1-2,8.1-2.7,12.1C31.8,84.5,53,91.4,59.5,106.2z"/>
	</g>
	<g>
		<path fill="#303C42" d="M29.4,66.2c-0.4,0-0.8-0.3-0.9-0.7l-2-5.8c-0.2-0.5,0.1-1.1,0.6-1.3c0.5-0.2,1.1,0.1,1.3,0.6l2,5.8
			c0.2,0.5-0.1,1.1-0.6,1.3C29.6,66.2,29.5,66.2,29.4,66.2z"/>
	</g>
	<g>
		<path fill="#303C42" d="M37.1,63.6c-0.4,0-0.8-0.3-0.9-0.7l-1.3-3.8c-0.2-0.5,0.1-1.1,0.6-1.3c0.5-0.2,1.1,0.1,1.3,0.6l1.3,3.8
			c0.2,0.5-0.1,1.1-0.6,1.3C37.3,63.6,37.2,63.6,37.1,63.6z"/>
	</g>
	<g>
		<path fill="#303C42" d="M44.9,60.9c-0.4,0-0.8-0.3-0.9-0.7l-2-5.8c-0.2-0.5,0.1-1.1,0.6-1.3c0.5-0.2,1.1,0.1,1.3,0.6l2,5.8
			c0.2,0.5-0.1,1.1-0.6,1.3C45.1,60.9,45,60.9,44.9,60.9z"/>
	</g>
	<g>
		<path fill="#303C42" d="M52.6,58.3c-0.4,0-0.8-0.3-0.9-0.7l-1.3-3.8c-0.2-0.5,0.1-1.1,0.6-1.3c0.5-0.2,1.1,0.1,1.3,0.6l1.3,3.8
			c0.2,0.5-0.1,1.1-0.6,1.3C52.8,58.3,52.7,58.3,52.6,58.3z"/>
	</g>
	<g>
		<path fill="#303C42" d="M60.4,55.6c-0.4,0-0.8-0.3-0.9-0.7l-2-5.8c-0.2-0.5,0.1-1.1,0.6-1.3c0.5-0.2,1.1,0.1,1.3,0.6l2,5.8
			c0.2,0.5-0.1,1.1-0.6,1.3C60.6,55.6,60.5,55.6,60.4,55.6z"/>
	</g>
	<g>
		<path fill="#303C42" d="M68.1,53c-0.4,0-0.8-0.3-0.9-0.7l-1.3-3.8c-0.2-0.5,0.1-1.1,0.6-1.3c0.5-0.2,1.1,0.1,1.3,0.6l1.3,3.8
			c0.2,0.5-0.1,1.1-0.6,1.3C68.3,53,68.2,53,68.1,53z"/>
	</g>
	<g>
		<path fill="#303C42" d="M75.8,50.3c-0.4,0-0.8-0.3-0.9-0.7l-2-5.8c-0.2-0.5,0.1-1.1,0.6-1.3c0.5-0.2,1.1,0.1,1.3,0.6l2,5.8
			c0.2,0.5-0.1,1.1-0.6,1.3C76.1,50.3,76,50.3,75.8,50.3z"/>
	</g>
	<g>
		<path fill="#303C42" d="M83.6,47.7c-0.4,0-0.8-0.3-0.9-0.7l-1.3-3.8c-0.2-0.5,0.1-1.1,0.6-1.3c0.5-0.2,1.1,0.1,1.3,0.6l1.3,3.8
			c0.2,0.5-0.1,1.1-0.6,1.3C83.8,47.6,83.7,47.7,83.6,47.7z"/>
	</g>
	<g>
		<path fill="#303C42" d="M91.3,45c-0.4,0-0.8-0.3-0.9-0.7l-2-5.8c-0.2-0.5,0.1-1.1,0.6-1.3c0.5-0.2,1.1,0.1,1.3,0.6l2,5.8
			c0.2,0.5-0.1,1.1-0.6,1.3C91.6,45,91.5,45,91.3,45z"/>
	</g>
	<g>
		<path fill="#303C42" d="M99.1,42.4c-0.4,0-0.8-0.3-0.9-0.7l-1.3-3.8c-0.2-0.5,0.1-1.1,0.6-1.3c0.5-0.2,1.1,0.1,1.3,0.6L100,41
			c0.2,0.5-0.1,1.1-0.6,1.3C99.3,42.3,99.2,42.4,99.1,42.4z"/>
	</g>
	<g>
		<path fill="#303C42" d="M109.5,127.5H68.7c-1.1,0-2-0.9-2-2v-16.3h-5.4v16.3c0,1.1-0.9,2-2,2H18.5c-0.9,0-1.6-0.6-1.9-1.4
			C12,111.4,13,89.2,19.4,66.6c0.2-0.8,1-1.4,1.9-1.5c0.5,0,0.9,0.1,1.2,0.4l77.2-26.4c0.6-0.2,1.2-0.1,1.7,0.2
			c0.5,0.3,0.9,0.8,1,1.4c1,5.9,2.4,11.8,4.1,17.5l1.6,6c7,23.4,8.3,46.6,3.5,62C111.1,126.9,110.3,127.5,109.5,127.5z M70.7,123.5
			H108c4-14.5,2.6-36.6-3.9-58.3l-1.6-6c-1.5-5.1-2.8-10.3-3.8-15.6l-76.1,26c-5.5,20.5-6.4,40.3-2.7,53.9h37.3v-16.3
			c0-1.1,0.9-2,2-2h9.4c1.1,0,2,0.9,2,2V123.5z"/>
	</g>
	<g>
		<path fill="#303C42" d="M25.9,51.5c-0.5,0-1-0.2-1.3-0.5c-0.5-0.5-0.8-1.2-0.6-1.9c4-17,4.7-33.9,2.1-46.2c-0.1-0.6,0-1.2,0.4-1.7
			c0.4-0.5,1-0.7,1.6-0.7H100c0.6,0,1.2,0.3,1.6,0.7c0.4,0.5,0.5,1.1,0.4,1.7c-1.4,6.2-1.8,13.5-1.5,21.7c0,0.9-0.5,1.7-1.4,2
			L26.6,51.4C26.4,51.5,26.2,51.5,25.9,51.5z M30.5,4.5c2.1,11.8,1.5,26.5-1.8,42l67.7-23.2c-0.2-6.9,0.1-13.2,1.1-18.8H30.5z"/>
	</g>
	<g>
		<path fill="#303C42" d="M21.6,69.9c-0.3,0-0.6-0.1-0.9-0.2c-0.5-0.2-0.8-0.6-1-1.1l-5.2-15.1c-0.4-1,0.2-2.2,1.2-2.5l85.3-29.2
			c1-0.4,2.2,0.2,2.5,1.2l5.2,15.1c0.2,0.5,0.1,1.1-0.1,1.5c-0.2,0.5-0.6,0.8-1.1,1L22.2,69.8C22,69.9,21.8,69.9,21.6,69.9z
			 M18.9,54.1l3.9,11.3l81.6-27.9l-3.9-11.3L18.9,54.1z"/>
	</g>
	<g>
		<path fill="#303C42" d="M20.1,53.6c-0.7,0-1.3-0.3-1.7-0.9c-0.5-0.8-0.4-1.8,0.3-2.5l7-7.2c0.6-0.6,1.6-0.8,2.4-0.4
			c0.8,0.4,1.2,1.3,1,2.2L27.9,50c-0.2,0.7-0.6,1.2-1.3,1.5l-5.8,2C20.5,53.5,20.3,53.6,20.1,53.6z"/>
	</g>
	<g>
		<path fill="#303C42" d="M17,55.7c-0.3,0-0.7-0.2-0.8-0.5c-0.3-0.4-0.2-0.9,0.1-1.2l0,0c0.2-0.3,0.6-0.4,0.9-0.3
			c0.3,0.1,0.6,0.3,0.7,0.7c0.2,0.5-0.1,1.1-0.6,1.3C17.3,55.7,17.1,55.7,17,55.7z"/>
	</g>
</g>
</svg>
