<?xml version="1.0" encoding="utf-8"?>
<!-- Generator: Adobe Illustrator 18.1.1, SVG Export Plug-In . SVG Version: 6.00 Build 0)  -->
<svg version="1.1" id="Layer_1" xmlns="http://www.w3.org/2000/svg" xmlns:xlink="http://www.w3.org/1999/xlink" x="0px" y="0px"
	 viewBox="0 0 128 128" enable-background="new 0 0 128 128" xml:space="preserve">
<g>
	<g>
		<path fill="#303C42" d="M64,46.3c-5.4,0-9.7-4.4-9.7-9.7s4.4-9.7,9.7-9.7s9.7,4.4,9.7,9.7S69.4,46.3,64,46.3z M64,30.9
			c-3.2,0-5.7,2.6-5.7,5.7s2.6,5.7,5.7,5.7c3.2,0,5.7-2.6,5.7-5.7S67.2,30.9,64,30.9z"/>
	</g>
	<g>
		<path fill="#303C42" d="M52.1,63.6c-0.7,0-1.4-0.4-1.8-1L33.4,31.3c-1.5-2.8-0.5-6.3,2.3-7.8c0.8-0.5,1.8-0.7,2.7-0.7
			c2.1,0,4,1.2,5,3l14.9,27.5c0.5,0.9,0.2,1.9-0.5,2.5c-2,1.5-3.3,3.7-3.7,6.2c-0.2,0.8-0.8,1.5-1.7,1.6
			C52.3,63.6,52.2,63.6,52.1,63.6z M38.4,26.8c-0.3,0-0.6,0.1-0.8,0.2c-0.8,0.5-1.2,1.5-0.7,2.3l14.8,27.4c0.6-1.1,1.4-2.1,2.3-3
			L40,27.7C39.7,27.1,39.1,26.8,38.4,26.8z"/>
	</g>
	<g>
		<path fill="#303C42" d="M75.9,63.6c-0.1,0-0.2,0-0.3,0c-0.8-0.1-1.5-0.8-1.7-1.6c-0.4-2.4-1.8-4.6-3.7-6.2c-0.8-0.6-1-1.7-0.5-2.5
			l14.9-27.5c1-1.9,2.9-3,5-3c0.9,0,1.9,0.2,2.7,0.7c2.8,1.5,3.8,5,2.3,7.8L77.6,62.6C77.3,63.2,76.6,63.6,75.9,63.6z M73.9,53.8
			c0.9,0.9,1.7,1.9,2.3,3l14.8-27.4c0.5-0.8,0.1-1.9-0.7-2.3c-0.8-0.4-1.9-0.1-2.3,0.7L73.9,53.8z"/>
	</g>
	<g>
		<path fill="#303C42" d="M86.8,127.5c-3.6,0-6.5-2.9-6.5-6.5v-20.6l-10.9-9.1H58.5c0,0,0,0,0,0l-10.9,9V121c0,3.6-2.9,6.5-6.5,6.5
			s-6.5-2.9-6.5-6.5V97.3c0-1.9,0.9-3.7,2.3-5l12.9-10.7V63.8c0-7.8,6.3-14.1,14.1-14.1S78.1,56,78.1,63.8v17.9L91,92.4
			c1.5,1.2,2.3,3.1,2.3,5V121C93.3,124.6,90.4,127.5,86.8,127.5z M57.7,87.3h12.5c0.6,0,1.1,0.2,1.5,0.7c0.1,0.1,0.2,0.2,0.3,0.3
			l11.6,9.7c0.5,0.4,0.7,0.9,0.7,1.5V121c0,1.4,1.1,2.5,2.5,2.5s2.5-1.1,2.5-2.5V97.3c0-0.7-0.3-1.4-0.9-1.9l-13.3-11
			c-0.1-0.1-0.1-0.1-0.2-0.1c-0.5-0.4-0.9-1-0.9-1.7V63.8c0-5.6-4.5-10.1-10.1-10.1c-5.6,0-10.1,4.5-10.1,10.1v18.9
			c0,0.7-0.3,1.3-0.9,1.7c-0.1,0-0.1,0.1-0.2,0.2l-13.2,11c-0.6,0.5-0.9,1.2-0.9,1.9V121c0,1.4,1.1,2.5,2.5,2.5s2.5-1.1,2.5-2.5
			V99.4c0-0.6,0.3-1.2,0.7-1.5L56,88.3c0.1-0.1,0.2-0.2,0.3-0.3C56.6,87.6,57.2,87.3,57.7,87.3z"/>
	</g>
	<g>
		<path fill="#303C42" d="M107.6,23.3H20.4c-1.1,0-2-0.9-2-2s0.9-2,2-2h87.2c1.1,0,2,0.9,2,2S108.7,23.3,107.6,23.3z"/>
	</g>
	<g>
		<path fill="#303C42" d="M11.9,31H5.3c-1.1,0-2-0.9-2-2V8.7c0-1.1,0.9-2,2-2h6.5c1.1,0,2,0.9,2,2V29C13.9,30.1,13,31,11.9,31z
			 M7.3,27h2.5V10.7H7.3V27z"/>
	</g>
	<g>
		<path fill="#303C42" d="M20.4,37.2h-6.5c-1.1,0-2-0.9-2-2V2.5c0-1.1,0.9-2,2-2h6.5c1.1,0,2,0.9,2,2v32.7
			C22.4,36.3,21.5,37.2,20.4,37.2z M15.9,33.2h2.5V4.5h-2.5V33.2z"/>
	</g>
	<g>
		<path fill="#303C42" d="M122.7,31h-6.5c-1.1,0-2-0.9-2-2V8.7c0-1.1,0.9-2,2-2h6.5c1.1,0,2,0.9,2,2V29
			C124.7,30.1,123.8,31,122.7,31z M118.1,27h2.5V10.7h-2.5V27z"/>
	</g>
	<g>
		<path fill="#303C42" d="M114.1,37.2h-6.5c-1.1,0-2-0.9-2-2V2.5c0-1.1,0.9-2,2-2h6.5c1.1,0,2,0.9,2,2v32.7
			C116.1,36.3,115.2,37.2,114.1,37.2z M109.6,33.2h2.5V4.5h-2.5V33.2z"/>
	</g>
</g>
</svg>
