<?xml version="1.0" encoding="utf-8"?>
<!-- Generator: Adobe Illustrator 18.1.1, SVG Export Plug-In . SVG Version: 6.00 Build 0)  -->
<svg version="1.1" id="Layer_1" xmlns="http://www.w3.org/2000/svg" xmlns:xlink="http://www.w3.org/1999/xlink" x="0px" y="0px"
	 viewBox="0 0 128 128" enable-background="new 0 0 128 128" xml:space="preserve">
<g>
	<g>
		<path fill="#303C42" d="M101.1,121H7.6c-1.1,0-2-0.9-2-2v-13.3c0-1,0.8-1.9,1.8-2l93.5-7.3c0.6,0,1.1,0.1,1.5,0.5
			c0.4,0.4,0.6,0.9,0.6,1.5V119C103.1,120.1,102.2,121,101.1,121z M9.6,117h89.5v-16.4l-89.5,7V117z"/>
	</g>
	<g>
		<path fill="#303C42" d="M101.1,100.4c-0.1,0-0.2,0-0.3,0c-1.1-0.2-1.8-1.2-1.7-2.3l9.2-63c0.2-1.1,1.2-1.8,2.3-1.7
			c1.1,0.2,1.8,1.2,1.7,2.3l-9.2,63C102.9,99.7,102,100.4,101.1,100.4z"/>
	</g>
	<g>
		<path fill="#303C42" d="M91.6,40.5c-1,0-1.8-0.7-2-1.7c-0.2-1.1,0.5-2.1,1.6-2.3l21.5-3.7l6-8.4c0.6-0.9,1.9-1.1,2.8-0.5
			c0.9,0.6,1.1,1.9,0.5,2.8l-6.5,9c-0.3,0.4-0.8,0.7-1.3,0.8L92,40.4C91.8,40.5,91.7,40.5,91.6,40.5z"/>
	</g>
	<g>
		<path fill="#303C42" d="M27.1,127.5H11.7c-1.1,0-2-0.9-2-2V119c0-1.1,0.9-2,2-2h15.5c1.1,0,2,0.9,2,2v6.5
			C29.1,126.6,28.3,127.5,27.1,127.5z M13.7,123.5h11.5V121H13.7V123.5z"/>
	</g>
	<g>
		<path fill="#303C42" d="M95.6,127.5H80.2c-1.1,0-2-0.9-2-2V119c0-1.1,0.9-2,2-2h15.5c1.1,0,2,0.9,2,2v6.5
			C97.6,126.6,96.7,127.5,95.6,127.5z M82.2,123.5h11.5V121H82.2V123.5z"/>
	</g>
	<g>
		<path fill="#303C42" d="M39.5,21.4c-5.4,0-9.9-4.2-10.4-9.6C28.7,6.1,32.9,1,38.7,0.5c5.7-0.5,10.8,3.9,11.3,9.5
			c0.2,2.8-0.6,5.5-2.4,7.6c-1.8,2.1-4.3,3.4-7.1,3.7C40.1,21.3,39.8,21.4,39.5,21.4z M39.5,4.5c-0.2,0-0.4,0-0.5,0
			c-3.5,0.3-6.2,3.4-5.9,6.9c0.3,3.5,3.4,6.2,6.9,5.9c1.7-0.1,3.3-0.9,4.4-2.3s1.6-3,1.5-4.7C45.7,7.1,42.9,4.5,39.5,4.5z"/>
	</g>
	<g>
		<path fill="#303C42" d="M14.7,44.8c-0.7,0-1.3-0.1-1.9-0.3c-1.5-0.5-2.7-1.6-3.4-3c-0.7-1.4-0.8-3-0.3-4.5l2.6-7.6
			c1.4-4.1,5.4-6.9,9.8-6.9c0.4,0,0.8,0,1.2,0.1l13,1.6c0.8,0.1,1.5,0.7,1.7,1.5c0.2,0.8-0.1,1.7-0.8,2.1c-2,1.4-3.4,3.5-3.7,5.9
			c-0.1,1.1-1.1,1.8-2.2,1.7l-8.2-1l-2.2,6.5c-0.8,2.2-2.8,3.8-5.1,4C15,44.8,14.9,44.8,14.7,44.8z M21.5,26.4c-2.7,0-5.1,1.7-6,4.2
			l-2.6,7.6c-0.2,0.5-0.1,1,0.1,1.5c0.2,0.5,0.6,0.8,1.1,1c0.3,0.1,0.5,0.1,0.8,0.1c0.8-0.1,1.4-0.6,1.7-1.3l2.6-7.6
			c0.3-1,1.3-1.7,2.3-1.7c0.1,0,0.2,0,0.3,0l7.6,0.9c0.4-1.3,1-2.5,1.8-3.7l-8.9-1.1C22,26.4,21.8,26.4,21.5,26.4z"/>
	</g>
	<g>
		<path fill="#303C42" d="M57.3,38.5L57.3,38.5c-0.4,0-0.8,0-1.2-0.1l-4-0.5c-0.9-0.1-1.7-0.9-1.8-1.8L50.1,34
			c-0.2-1.9-0.9-3.6-2.2-5c-0.6-0.6-0.7-1.5-0.3-2.3c0.4-0.7,1.2-1.2,2-1.1l6.5,0.8l2.1-6.1c0.8-2.4,3.1-4,5.6-4
			c0.6,0,1.3,0.1,1.9,0.3c1.5,0.5,2.7,1.6,3.4,3s0.8,3,0.3,4.5l-2.5,7.3C65.7,35.7,61.7,38.5,57.3,38.5z M54.2,34.2l2.4,0.3
			c3,0.4,5.8-1.4,6.7-4.3l2.5-7.3c0.2-0.5,0.1-1-0.1-1.5c-0.2-0.5-0.6-0.8-1.1-1c-1-0.3-2.1,0.2-2.4,1.2L59.6,29
			c-0.3,1-1.3,1.7-2.3,1.7c-0.1,0-0.2,0-0.3,0l-3.7-0.5c0.4,1.1,0.7,2.3,0.8,3.5L54.2,34.2z"/>
	</g>
	<g>
		<path fill="#303C42" d="M29.8,100.1c-0.3,0-0.7,0-1-0.1c-1.8-0.3-3.3-1.2-4.4-2.7c-1.1-1.4-1.5-3.2-1.2-5l6.6-34
			c0-1.5-0.5-14.5-0.9-22.5c-0.6-6.9,4.6-13,11.5-13.6c7-0.6,13.1,4.7,13.6,11.5l1.6,19.6l16.4,13c1.8,1.4,2.8,3.7,2.5,6
			c0,0,0,0.1,0,0.1l-3.4,20.2c-0.4,3.2-2.9,5.6-6.1,5.9c-0.4,0-0.9,0-1.3,0c-3.7-0.4-6.3-3.7-5.9-7.4c0,0,0-0.1,0-0.1l2.9-16.5
			L46.7,63.3c-0.2-0.2-0.4-0.4-0.6-0.6L42.6,63l-6.2,31.4c-0.5,3-2.9,5.3-6.1,5.6C30.2,100.1,30,100.1,29.8,100.1z M41.6,26.2
			c-0.2,0-0.5,0-0.7,0c-4.7,0.4-8.3,4.6-7.9,9.3c1,22.3,0.9,23.1,0.8,23.3l-6.7,34.2c-0.1,0.6,0.1,1.3,0.5,1.9
			c0.4,0.6,1.1,1,1.8,1.1c0.2,0,0.4,0,0.6,0c1.3-0.1,2.3-1,2.4-2.3l6.5-33c0.2-0.9,0.9-1.5,1.8-1.6l6.1-0.5c0.7-0.1,1.4,0.3,1.8,0.9
			c0.2,0.3,0.4,0.5,0.6,0.6l15.1,12c0.6,0.5,0.9,1.2,0.7,1.9l-3.1,17.6c-0.1,1.5,0.9,2.8,2.4,2.9c0.2,0,0.4,0,0.5,0
			c1.3-0.1,2.3-1.1,2.5-2.4c0,0,0-0.1,0-0.1l3.4-20.2c0.1-0.9-0.3-1.8-1-2.4L52.6,56c-0.4-0.3-0.7-0.9-0.8-1.4l-1.7-20.4
			C49.8,29.7,46,26.2,41.6,26.2z"/>
	</g>
</g>
</svg>
