<?xml version="1.0" encoding="utf-8"?>
<!-- Generator: Adobe Illustrator 18.1.1, SVG Export Plug-In . SVG Version: 6.00 Build 0)  -->
<svg version="1.1" id="Layer_1" xmlns="http://www.w3.org/2000/svg" xmlns:xlink="http://www.w3.org/1999/xlink" x="0px" y="0px"
	 viewBox="0 0 128 128" enable-background="new 0 0 128 128" xml:space="preserve">
<g>
	<g>
		<path fill="#303C42" d="M93.5,127.5h-91c-1.1,0-2-0.9-2-2V2.5c0-1.1,0.9-2,2-2h68.3c0.5,0,1,0.2,1.4,0.6l26.9,26.8
			c0.4,0.4,0.6,0.9,0.6,1.4V44c0,1.1-0.9,2-2,2s-2-0.9-2-2V30.1L70,4.5H4.5v119h89c1.1,0,2,0.9,2,2S94.7,127.5,93.5,127.5z"/>
	</g>
	<g>
		<path fill="#303C42" d="M93.5,127.5c-18.7,0-34-15.2-34-34s15.2-34,34-34c18.7,0,34,15.2,34,34S112.3,127.5,93.5,127.5z
			 M93.5,63.5c-16.5,0-30,13.5-30,30s13.4,30,30,30s30-13.5,30-30S110.1,63.5,93.5,63.5z"/>
	</g>
	<g>
		<path fill="#303C42" d="M93.5,116.8c-12.8,0-23.2-10.4-23.2-23.3s10.4-23.3,23.2-23.3s23.2,10.4,23.2,23.3S106.4,116.8,93.5,116.8
			z M93.5,72.2c-11.7,0-21.2,9.5-21.2,21.3s9.5,21.3,21.2,21.3s21.2-9.5,21.2-21.3S105.3,72.2,93.5,72.2z"/>
	</g>
	<g>
		<path fill="#303C42" d="M101.4,54.9H85.7c-1.1,0-2-0.9-2-2V44c0-1.1,0.9-2,2-2h15.7c1.1,0,2,0.9,2,2v8.8
			C103.4,54,102.5,54.9,101.4,54.9z M87.7,50.9h11.7V46H87.7V50.9z"/>
	</g>
	<g>
		<path fill="#303C42" d="M98,63.8c-0.1,0-0.2,0-0.3,0c-2.8-0.4-5.5-0.4-8.3,0c-0.6,0.1-1.2-0.1-1.6-0.5c-0.4-0.4-0.7-0.9-0.7-1.5
			v-9c0-1.1,0.9-2,2-2H98c1.1,0,2,0.9,2,2v9c0,0.6-0.3,1.1-0.7,1.5C98.9,63.7,98.4,63.8,98,63.8z M91.1,54.9v4.8
			c1.6-0.1,3.2-0.1,4.8,0v-4.8H91.1z"/>
	</g>
	<g>
		<path fill="#303C42" d="M115.4,72.1c-0.5,0-1-0.2-1.4-0.5c-1-1-2.1-1.8-3.2-2.6c-1.1-0.8-2.3-1.5-3.6-2.1c-0.5-0.3-0.9-0.7-1-1.3
			c-0.1-0.6,0-1.2,0.3-1.6l5.5-7.9c0.3-0.4,0.8-0.7,1.3-0.8c0.5-0.1,1.1,0,1.5,0.3l7.2,5c0.9,0.6,1.1,1.9,0.5,2.8l-5.5,7.9
			c-0.3,0.5-0.9,0.8-1.4,0.8C115.6,72.1,115.5,72.1,115.4,72.1z M111.1,64.4c0.7,0.4,1.4,0.9,2,1.3c0.6,0.5,1.3,0.9,1.9,1.4l3.1-4.4
			l-3.9-2.8L111.1,64.4z"/>
	</g>
	<g>
		<path fill="#303C42" d="M71.7,72.1c-0.1,0-0.1,0-0.2,0c-0.6-0.1-1.1-0.4-1.4-0.8l-5.5-7.9c-0.6-0.9-0.4-2.1,0.5-2.8l7.2-5
			c0.4-0.3,1-0.4,1.5-0.3c0.5,0.1,1,0.4,1.3,0.8l5.5,7.9c0.3,0.5,0.4,1.1,0.3,1.6c-0.1,0.6-0.5,1-1,1.3c-1.3,0.6-2.5,1.4-3.6,2.1
			c-1.1,0.8-2.2,1.6-3.2,2.6C72.7,72,72.2,72.1,71.7,72.1z M69,62.8l3.1,4.4c0.6-0.5,1.3-1,1.9-1.4c0.6-0.5,1.3-0.9,2-1.3L72.9,60
			L69,62.8z"/>
	</g>
	<g>
		<path fill="#303C42" d="M97.8,30.3H70.8c-0.6,0-1-0.4-1-1V2.5c0-0.4,0.2-0.8,0.6-0.9c0.4-0.2,0.8-0.1,1.1,0.2l26.9,26.8
			c0.3,0.3,0.4,0.7,0.2,1.1S98.2,30.3,97.8,30.3z M71.8,28.3h23.5L71.8,4.9V28.3z"/>
	</g>
	<g>
		<path fill="#303C42" d="M50.1,25H12.7c-0.6,0-1-0.4-1-1s0.4-1,1-1h37.4c0.6,0,1,0.4,1,1S50.7,25,50.1,25z"/>
	</g>
	<g>
		<path fill="#303C42" d="M50.1,45.5H12.7c-0.6,0-1-0.4-1-1s0.4-1,1-1h37.4c0.6,0,1,0.4,1,1S50.7,45.5,50.1,45.5z"/>
	</g>
	<g>
		<path fill="#303C42" d="M50.1,66H12.7c-0.6,0-1-0.4-1-1s0.4-1,1-1h37.4c0.6,0,1,0.4,1,1S50.7,66,50.1,66z"/>
	</g>
	<g>
		<path fill="#303C42" d="M50.1,86.5H12.7c-0.6,0-1-0.4-1-1s0.4-1,1-1h37.4c0.6,0,1,0.4,1,1S50.7,86.5,50.1,86.5z"/>
	</g>
	<g>
		<path fill="#303C42" d="M50.1,107H12.7c-0.6,0-1-0.4-1-1s0.4-1,1-1h37.4c0.6,0,1,0.4,1,1S50.7,107,50.1,107z"/>
	</g>
	<g>
		<path fill="#303C42" d="M93.5,94.5c-0.6,0-1-0.4-1-1V81c0-0.6,0.4-1,1-1s1,0.4,1,1v12.5C94.5,94.1,94.1,94.5,93.5,94.5z"/>
	</g>
</g>
</svg>
